<svg width="262" height="169" viewBox="0 0 262 169" fill="none" xmlns="http://www.w3.org/2000/svg">
<path d="M103.27 120.384V123H90.6701V106.2H102.934V108.816H93.7901V113.184H101.902V115.752H93.7901V120.384H103.27ZM110.303 123.168C109.263 123.168 108.247 123.032 107.255 122.76C106.263 122.488 105.471 122.144 104.879 121.728L106.031 119.448C106.607 119.832 107.295 120.144 108.095 120.384C108.911 120.608 109.711 120.72 110.495 120.72C112.287 120.72 113.183 120.248 113.183 119.304C113.183 118.856 112.951 118.544 112.487 118.368C112.039 118.192 111.311 118.024 110.303 117.864C109.247 117.704 108.383 117.52 107.711 117.312C107.055 117.104 106.479 116.744 105.983 116.232C105.503 115.704 105.263 114.976 105.263 114.048C105.263 112.832 105.767 111.864 106.775 111.144C107.799 110.408 109.175 110.04 110.903 110.04C111.783 110.04 112.663 110.144 113.543 110.352C114.423 110.544 115.143 110.808 115.703 111.144L114.551 113.424C113.463 112.784 112.239 112.464 110.879 112.464C109.999 112.464 109.327 112.6 108.863 112.872C108.415 113.128 108.191 113.472 108.191 113.904C108.191 114.384 108.431 114.728 108.911 114.936C109.407 115.128 110.167 115.312 111.191 115.488C112.215 115.648 113.055 115.832 113.711 116.04C114.367 116.248 114.927 116.6 115.391 117.096C115.871 117.592 116.111 118.296 116.111 119.208C116.111 120.408 115.591 121.368 114.551 122.088C113.511 122.808 112.095 123.168 110.303 123.168ZM126.399 122.304C126.047 122.592 125.615 122.808 125.103 122.952C124.607 123.096 124.079 123.168 123.519 123.168C122.111 123.168 121.023 122.8 120.255 122.064C119.487 121.328 119.103 120.256 119.103 118.848V112.68H116.991V110.28H119.103V107.352H122.103V110.28H125.535V112.68H122.103V118.776C122.103 119.4 122.255 119.88 122.559 120.216C122.863 120.536 123.303 120.696 123.879 120.696C124.551 120.696 125.111 120.52 125.559 120.168L126.399 122.304ZM141.274 110.184V123H138.418V121.368C137.938 121.944 137.338 122.392 136.618 122.712C135.898 123.016 135.122 123.168 134.29 123.168C132.578 123.168 131.226 122.696 130.234 121.752C129.258 120.792 128.77 119.376 128.77 117.504V110.184H131.77V117.096C131.77 118.248 132.026 119.112 132.538 119.688C133.066 120.248 133.81 120.528 134.77 120.528C135.842 120.528 136.69 120.2 137.314 119.544C137.954 118.872 138.274 117.912 138.274 116.664V110.184H141.274ZM157.754 105.192V123H154.874V121.344C154.378 121.952 153.762 122.408 153.026 122.712C152.306 123.016 151.506 123.168 150.626 123.168C149.394 123.168 148.282 122.896 147.29 122.352C146.314 121.808 145.546 121.04 144.986 120.048C144.426 119.04 144.146 117.888 144.146 116.592C144.146 115.296 144.426 114.152 144.986 113.16C145.546 112.168 146.314 111.4 147.29 110.856C148.282 110.312 149.394 110.04 150.626 110.04C151.474 110.04 152.25 110.184 152.954 110.472C153.658 110.76 154.258 111.192 154.754 111.768V105.192H157.754ZM150.986 120.6C151.706 120.6 152.354 120.44 152.93 120.12C153.506 119.784 153.962 119.312 154.298 118.704C154.634 118.096 154.802 117.392 154.802 116.592C154.802 115.792 154.634 115.088 154.298 114.48C153.962 113.872 153.506 113.408 152.93 113.088C152.354 112.752 151.706 112.584 150.986 112.584C150.266 112.584 149.618 112.752 149.042 113.088C148.466 113.408 148.01 113.872 147.674 114.48C147.338 115.088 147.17 115.792 147.17 116.592C147.17 117.392 147.338 118.096 147.674 118.704C148.01 119.312 148.466 119.784 149.042 120.12C149.618 120.44 150.266 120.6 150.986 120.6ZM173.679 110.184L167.679 124.032C167.119 125.424 166.439 126.4 165.639 126.96C164.839 127.536 163.871 127.824 162.735 127.824C162.095 127.824 161.463 127.72 160.839 127.512C160.215 127.304 159.703 127.016 159.303 126.648L160.503 124.44C160.791 124.712 161.127 124.928 161.511 125.088C161.911 125.248 162.311 125.328 162.711 125.328C163.239 125.328 163.671 125.192 164.007 124.92C164.359 124.648 164.679 124.192 164.967 123.552L165.183 123.048L159.591 110.184H162.711L166.743 119.664L170.799 110.184H173.679Z" fill="#040404"/>
<path d="M72.3479 149V139.9H73.6479V147.869H78.5749V149H72.3479ZM82.8638 149.078C82.1271 149.078 81.4771 148.926 80.9138 148.623C80.3591 148.32 79.9258 147.904 79.6138 147.375C79.3105 146.846 79.1588 146.24 79.1588 145.555C79.1588 144.87 79.3061 144.264 79.6008 143.735C79.9041 143.206 80.3158 142.795 80.8358 142.5C81.3645 142.197 81.9581 142.045 82.6168 142.045C83.2841 142.045 83.8735 142.192 84.3848 142.487C84.8961 142.782 85.2948 143.198 85.5808 143.735C85.8755 144.264 86.0228 144.883 86.0228 145.594C86.0228 145.646 86.0185 145.707 86.0098 145.776C86.0098 145.845 86.0055 145.91 85.9968 145.971H80.1338V145.074H85.3468L84.8398 145.386C84.8485 144.944 84.7575 144.55 84.5668 144.203C84.3761 143.856 84.1118 143.588 83.7738 143.397C83.4445 143.198 83.0588 143.098 82.6168 143.098C82.1835 143.098 81.7978 143.198 81.4598 143.397C81.1218 143.588 80.8575 143.861 80.6668 144.216C80.4761 144.563 80.3808 144.961 80.3808 145.412V145.62C80.3808 146.079 80.4848 146.491 80.6928 146.855C80.9095 147.21 81.2085 147.488 81.5898 147.687C81.9711 147.886 82.4088 147.986 82.9028 147.986C83.3101 147.986 83.6785 147.917 84.0078 147.778C84.3458 147.639 84.6405 147.431 84.8918 147.154L85.5808 147.96C85.2688 148.324 84.8788 148.601 84.4108 148.792C83.9515 148.983 83.4358 149.078 82.8638 149.078ZM91.8423 149V147.544L91.7773 147.271V144.788C91.7773 144.259 91.6213 143.852 91.3093 143.566C91.006 143.271 90.5467 143.124 89.9313 143.124C89.524 143.124 89.1253 143.193 88.7353 143.332C88.3453 143.462 88.016 143.64 87.7473 143.865L87.2273 142.929C87.5827 142.643 88.0073 142.426 88.5013 142.279C89.004 142.123 89.5283 142.045 90.0743 142.045C91.019 142.045 91.747 142.275 92.2583 142.734C92.7697 143.193 93.0253 143.895 93.0253 144.84V149H91.8423ZM89.5803 149.078C89.069 149.078 88.6183 148.991 88.2283 148.818C87.847 148.645 87.5523 148.406 87.3443 148.103C87.1363 147.791 87.0323 147.44 87.0323 147.05C87.0323 146.677 87.119 146.339 87.2923 146.036C87.4743 145.733 87.7647 145.49 88.1633 145.308C88.5707 145.126 89.1167 145.035 89.8013 145.035H91.9853V145.932H89.8533C89.2293 145.932 88.809 146.036 88.5923 146.244C88.3757 146.452 88.2673 146.703 88.2673 146.998C88.2673 147.336 88.4017 147.609 88.6703 147.817C88.939 148.016 89.3117 148.116 89.7883 148.116C90.2563 148.116 90.6637 148.012 91.0103 147.804C91.3657 147.596 91.6213 147.293 91.7773 146.894L92.0243 147.752C91.8597 148.159 91.5693 148.484 91.1533 148.727C90.7373 148.961 90.213 149.078 89.5803 149.078ZM95.3349 149V142.11H96.5309V143.982L96.4139 143.514C96.6045 143.037 96.9252 142.673 97.3759 142.422C97.8265 142.171 98.3812 142.045 99.0399 142.045V143.254C98.9879 143.245 98.9359 143.241 98.8839 143.241C98.8405 143.241 98.7972 143.241 98.7539 143.241C98.0865 143.241 97.5579 143.44 97.1679 143.839C96.7779 144.238 96.5829 144.814 96.5829 145.568V149H95.3349ZM104.257 142.045C104.82 142.045 105.314 142.153 105.739 142.37C106.172 142.587 106.51 142.916 106.753 143.358C106.996 143.8 107.117 144.359 107.117 145.035V149H105.869V145.178C105.869 144.511 105.704 144.008 105.375 143.67C105.054 143.332 104.599 143.163 104.01 143.163C103.568 143.163 103.182 143.25 102.853 143.423C102.524 143.596 102.268 143.852 102.086 144.19C101.913 144.528 101.826 144.948 101.826 145.451V149H100.578V142.11H101.774V143.969L101.579 143.475C101.804 143.024 102.151 142.673 102.619 142.422C103.087 142.171 103.633 142.045 104.257 142.045ZM114.27 144.203H118.963V145.321H114.27V144.203ZM114.4 149H113.1V139.9H119.522V141.031H114.4V149ZM121.043 149V142.11H122.239V143.982L122.122 143.514C122.313 143.037 122.633 142.673 123.084 142.422C123.535 142.171 124.089 142.045 124.748 142.045V143.254C124.696 143.245 124.644 143.241 124.592 143.241C124.549 143.241 124.505 143.241 124.462 143.241C123.795 143.241 123.266 143.44 122.876 143.839C122.486 144.238 122.291 144.814 122.291 145.568V149H121.043ZM129.174 149.078C128.48 149.078 127.865 148.926 127.328 148.623C126.79 148.32 126.366 147.904 126.054 147.375C125.742 146.838 125.586 146.231 125.586 145.555C125.586 144.87 125.742 144.264 126.054 143.735C126.366 143.206 126.79 142.795 127.328 142.5C127.865 142.197 128.48 142.045 129.174 142.045C129.858 142.045 130.469 142.197 131.007 142.5C131.553 142.795 131.977 143.206 132.281 143.735C132.593 144.255 132.749 144.862 132.749 145.555C132.749 146.24 132.593 146.846 132.281 147.375C131.977 147.904 131.553 148.32 131.007 148.623C130.469 148.926 129.858 149.078 129.174 149.078ZM129.174 147.986C129.616 147.986 130.01 147.886 130.357 147.687C130.712 147.488 130.989 147.206 131.189 146.842C131.388 146.469 131.488 146.04 131.488 145.555C131.488 145.061 131.388 144.636 131.189 144.281C130.989 143.917 130.712 143.635 130.357 143.436C130.01 143.237 129.616 143.137 129.174 143.137C128.732 143.137 128.337 143.237 127.991 143.436C127.644 143.635 127.367 143.917 127.159 144.281C126.951 144.636 126.847 145.061 126.847 145.555C126.847 146.04 126.951 146.469 127.159 146.842C127.367 147.206 127.644 147.488 127.991 147.687C128.337 147.886 128.732 147.986 129.174 147.986ZM143.094 142.045C143.648 142.045 144.138 142.153 144.563 142.37C144.987 142.587 145.317 142.916 145.551 143.358C145.793 143.8 145.915 144.359 145.915 145.035V149H144.667V145.178C144.667 144.511 144.511 144.008 144.199 143.67C143.887 143.332 143.449 143.163 142.886 143.163C142.47 143.163 142.106 143.25 141.794 143.423C141.482 143.596 141.239 143.852 141.066 144.19C140.901 144.528 140.819 144.948 140.819 145.451V149H139.571V145.178C139.571 144.511 139.415 144.008 139.103 143.67C138.799 143.332 138.362 143.163 137.79 143.163C137.382 143.163 137.023 143.25 136.711 143.423C136.399 143.596 136.156 143.852 135.983 144.19C135.809 144.528 135.723 144.948 135.723 145.451V149H134.475V142.11H135.671V143.943L135.476 143.475C135.692 143.024 136.026 142.673 136.477 142.422C136.927 142.171 137.452 142.045 138.05 142.045C138.708 142.045 139.276 142.21 139.753 142.539C140.229 142.86 140.541 143.349 140.689 144.008L140.182 143.8C140.39 143.271 140.754 142.847 141.274 142.526C141.794 142.205 142.4 142.045 143.094 142.045ZM158.41 139.9H159.71V149H158.41V139.9ZM153.184 149H151.884V139.9H153.184V149ZM158.527 144.944H153.054V143.813H158.527V144.944ZM165.203 149.078C164.51 149.078 163.894 148.926 163.357 148.623C162.82 148.32 162.395 147.904 162.083 147.375C161.771 146.838 161.615 146.231 161.615 145.555C161.615 144.87 161.771 144.264 162.083 143.735C162.395 143.206 162.82 142.795 163.357 142.5C163.894 142.197 164.51 142.045 165.203 142.045C165.888 142.045 166.499 142.197 167.036 142.5C167.582 142.795 168.007 143.206 168.31 143.735C168.622 144.255 168.778 144.862 168.778 145.555C168.778 146.24 168.622 146.846 168.31 147.375C168.007 147.904 167.582 148.32 167.036 148.623C166.499 148.926 165.888 149.078 165.203 149.078ZM165.203 147.986C165.645 147.986 166.039 147.886 166.386 147.687C166.741 147.488 167.019 147.206 167.218 146.842C167.417 146.469 167.517 146.04 167.517 145.555C167.517 145.061 167.417 144.636 167.218 144.281C167.019 143.917 166.741 143.635 166.386 143.436C166.039 143.237 165.645 143.137 165.203 143.137C164.761 143.137 164.367 143.237 164.02 143.436C163.673 143.635 163.396 143.917 163.188 144.281C162.98 144.636 162.876 145.061 162.876 145.555C162.876 146.04 162.98 146.469 163.188 146.842C163.396 147.206 163.673 147.488 164.02 147.687C164.367 147.886 164.761 147.986 165.203 147.986ZM179.123 142.045C179.677 142.045 180.167 142.153 180.592 142.37C181.016 142.587 181.346 142.916 181.58 143.358C181.822 143.8 181.944 144.359 181.944 145.035V149H180.696V145.178C180.696 144.511 180.54 144.008 180.228 143.67C179.916 143.332 179.478 143.163 178.915 143.163C178.499 143.163 178.135 143.25 177.823 143.423C177.511 143.596 177.268 143.852 177.095 144.19C176.93 144.528 176.848 144.948 176.848 145.451V149H175.6V145.178C175.6 144.511 175.444 144.008 175.132 143.67C174.828 143.332 174.391 143.163 173.819 143.163C173.411 143.163 173.052 143.25 172.74 143.423C172.428 143.596 172.185 143.852 172.012 144.19C171.838 144.528 171.752 144.948 171.752 145.451V149H170.504V142.11H171.7V143.943L171.505 143.475C171.721 143.024 172.055 142.673 172.506 142.422C172.956 142.171 173.481 142.045 174.079 142.045C174.737 142.045 175.305 142.21 175.782 142.539C176.258 142.86 176.57 143.349 176.718 144.008L176.211 143.8C176.419 143.271 176.783 142.847 177.303 142.526C177.823 142.205 178.429 142.045 179.123 142.045ZM187.308 149.078C186.571 149.078 185.921 148.926 185.358 148.623C184.803 148.32 184.37 147.904 184.058 147.375C183.755 146.846 183.603 146.24 183.603 145.555C183.603 144.87 183.75 144.264 184.045 143.735C184.348 143.206 184.76 142.795 185.28 142.5C185.809 142.197 186.402 142.045 187.061 142.045C187.728 142.045 188.318 142.192 188.829 142.487C189.34 142.782 189.739 143.198 190.025 143.735C190.32 144.264 190.467 144.883 190.467 145.594C190.467 145.646 190.463 145.707 190.454 145.776C190.454 145.845 190.45 145.91 190.441 145.971H184.578V145.074H189.791L189.284 145.386C189.293 144.944 189.202 144.55 189.011 144.203C188.82 143.856 188.556 143.588 188.218 143.397C187.889 143.198 187.503 143.098 187.061 143.098C186.628 143.098 186.242 143.198 185.904 143.397C185.566 143.588 185.302 143.861 185.111 144.216C184.92 144.563 184.825 144.961 184.825 145.412V145.62C184.825 146.079 184.929 146.491 185.137 146.855C185.354 147.21 185.653 147.488 186.034 147.687C186.415 147.886 186.853 147.986 187.347 147.986C187.754 147.986 188.123 147.917 188.452 147.778C188.79 147.639 189.085 147.431 189.336 147.154L190.025 147.96C189.713 148.324 189.323 148.601 188.855 148.792C188.396 148.983 187.88 149.078 187.308 149.078Z" fill="#9295A3"/>
<g filter="url(#filter0_d_320_14032)">
<g filter="url(#filter1_d_320_14032)">
<path d="M148.156 90.2554H114.099C106.895 90.2554 101 84.3608 101 77.1564V43.099C101 35.8945 106.895 30 114.099 30H148.156C155.361 30 161.255 35.8945 161.255 43.099V77.1564C161.255 84.3608 155.361 90.2554 148.156 90.2554Z" fill="#4DC591"/>
</g>
<path d="M132.502 63.239H139.379C141.082 63.239 142.457 61.8636 142.457 60.1608C142.457 58.4579 141.082 57.0825 139.379 57.0825H132.502V63.239Z" fill="white"/>
<path d="M141.54 48.8952C140.951 47.6508 140.099 46.6029 139.051 45.7515C137.414 44.3761 135.318 43.5247 133.026 43.5247H132.502V49.6812H138.462H140.951C141.409 49.6812 141.671 49.2227 141.54 48.8952Z" fill="white"/>
<path d="M132.502 76.6582H133.026C134.467 76.6582 135.842 76.3307 137.021 75.7412C135.515 75.4138 134.008 74.9553 132.502 74.4968V76.6582Z" fill="#F2F2F2"/>
<path d="M141.54 71.3602C141.737 70.9673 141.409 70.5088 141.016 70.5088H132.502V74.504C134.008 75.0279 135.58 75.4209 137.021 75.7484C138.986 74.8969 140.558 73.3251 141.54 71.3602Z" fill="white"/>
<path d="M119.797 65.5966V67.2994C119.797 71.3601 122.417 74.8313 126.019 76.1412C127.001 76.5342 128.115 76.7307 129.228 76.7307H129.752V73.5214C125.429 71.6876 121.5 69.0023 119.797 65.5966Z" fill="#F2F2F2"/>
<path d="M128.901 43.5251C127.656 43.5906 126.543 43.8526 125.429 44.3111C122.417 45.621 120.19 48.5682 119.862 52.0395C119.862 52.3669 119.797 52.6944 119.797 52.9564V53.0874V56.4931C121.762 50.8606 126.281 46.0139 128.901 43.5251Z" fill="#F2F2F2"/>
<path d="M129.752 43.5251H129.228C129.097 43.5251 129.032 43.5251 128.901 43.5251C126.281 46.0139 121.762 50.8606 119.797 56.4931V59.3094V65.5969C121.5 69.0681 125.429 71.6879 129.752 73.5217V60.6848V43.5251Z" fill="white"/>
</g>
<defs>
<filter id="filter0_d_320_14032" x="61" y="0" width="140.256" height="140.255" filterUnits="userSpaceOnUse" color-interpolation-filters="sRGB">
<feFlood flood-opacity="0" result="BackgroundImageFix"/>
<feColorMatrix in="SourceAlpha" type="matrix" values="0 0 0 0 0 0 0 0 0 0 0 0 0 0 0 0 0 0 127 0" result="hardAlpha"/>
<feOffset dy="10"/>
<feGaussianBlur stdDeviation="20"/>
<feColorMatrix type="matrix" values="0 0 0 0 0.52549 0 0 0 0 0.619608 0 0 0 0 0.941176 0 0 0 0.3 0"/>
<feBlend mode="normal" in2="BackgroundImageFix" result="effect1_dropShadow_320_14032"/>
<feBlend mode="normal" in="SourceGraphic" in2="effect1_dropShadow_320_14032" result="shape"/>
</filter>
<filter id="filter1_d_320_14032" x="47" y="0" width="168.256" height="168.255" filterUnits="userSpaceOnUse" color-interpolation-filters="sRGB">
<feFlood flood-opacity="0" result="BackgroundImageFix"/>
<feColorMatrix in="SourceAlpha" type="matrix" values="0 0 0 0 0 0 0 0 0 0 0 0 0 0 0 0 0 0 127 0" result="hardAlpha"/>
<feOffset dy="24"/>
<feGaussianBlur stdDeviation="27"/>
<feColorMatrix type="matrix" values="0 0 0 0 0.301961 0 0 0 0 0.772549 0 0 0 0 0.568627 0 0 0 0.2 0"/>
<feBlend mode="normal" in2="BackgroundImageFix" result="effect1_dropShadow_320_14032"/>
<feBlend mode="normal" in="SourceGraphic" in2="effect1_dropShadow_320_14032" result="shape"/>
</filter>
</defs>
</svg>
