<svg width="42" height="42" viewBox="0 0 42 42" fill="none" xmlns="http://www.w3.org/2000/svg">
<rect y="0.220703" width="41.9894" height="41.7476" rx="4" fill="white"/>
<path d="M19.3945 28.2537C19.1857 28.2531 18.9851 28.1725 18.8346 28.0286C18.7579 27.9547 18.6971 27.866 18.6558 27.768C18.6146 27.67 18.5938 27.5647 18.5946 27.4584V21.8225L13.178 15.2386C13.0815 15.1221 13.0205 14.9806 13.0024 14.8308C12.9843 14.681 13.0097 14.5291 13.0756 14.3932C13.1396 14.2572 13.2414 14.1422 13.3689 14.0618C13.4965 13.9813 13.6445 13.9388 13.7955 13.9392H28.1929C28.3443 13.9392 28.4926 13.9819 28.6205 14.0624C28.7484 14.1429 28.8507 14.2578 28.9156 14.3938C28.9804 14.5298 29.0051 14.6813 28.9868 14.8307C28.9684 14.9801 28.9078 15.1213 28.812 15.2378L23.3938 21.8225V25.8679C23.3943 26.0158 23.353 26.1608 23.2747 26.2865C23.1963 26.4122 23.0841 26.5135 22.9507 26.5789L19.7512 28.1694C19.6406 28.2248 19.5184 28.2537 19.3945 28.2537ZM15.4848 15.5297L20.0152 21.0352C20.1313 21.1772 20.1946 21.3547 20.1943 21.5378V26.1717L21.7941 25.3765V21.5378C21.7941 21.3543 21.858 21.1764 21.9748 21.0344L26.5068 15.5297H15.4848Z" fill="#9295A3"/>
</svg>
