<svg width="152" height="120" viewBox="0 0 152 120" fill="none" xmlns="http://www.w3.org/2000/svg">
<path d="M85.32 20.172V18.6H78.924V27H85.452V25.428H80.82V23.568H84.876V21.996H80.82V20.172H85.32ZM89.0876 20.46C87.6836 20.46 86.5436 21.144 86.5436 22.476C86.5436 24.744 89.8916 24.192 89.8916 25.224C89.8916 25.572 89.5436 25.728 89.0756 25.728C88.3676 25.728 87.5036 25.44 86.8316 24.924L86.2316 26.172C86.9636 26.76 87.9836 27.072 89.0276 27.072C90.4916 27.072 91.6556 26.376 91.6556 25.056C91.6676 22.776 88.2596 23.268 88.2596 22.296C88.2596 21.96 88.5716 21.816 89.0036 21.816C89.5436 21.816 90.2636 22.044 90.9716 22.44L91.6076 21.18C90.8876 20.724 89.9756 20.46 89.0876 20.46ZM96.5039 25.284C96.1679 25.44 95.8799 25.524 95.6399 25.524C95.2439 25.536 95.0159 25.32 95.0159 24.78V22.116H96.7679V20.832H95.0159V19.056H93.1799V20.832H92.2799V22.104H93.1799V25.092C93.1799 26.424 94.0559 27.084 95.2079 27.084C95.8079 27.084 96.4079 26.916 96.8879 26.64L96.5039 25.284ZM104.133 20.544H102.297V23.736C102.297 24.672 101.757 25.368 100.869 25.38C100.125 25.38 99.6573 24.888 99.6573 24.072V20.544H97.8093V24.6C97.8093 26.124 98.7093 27.072 100.137 27.072C101.109 27.072 101.853 26.676 102.297 25.86V27H104.133V20.544ZM112.295 18.096H110.459V21.492C109.991 20.832 109.283 20.472 108.371 20.472C106.571 20.472 105.371 21.78 105.371 23.748C105.371 25.74 106.583 27.072 108.419 27.072C109.307 27.072 110.003 26.712 110.459 26.052V27H112.295V18.096ZM108.851 25.584C107.879 25.584 107.231 24.852 107.219 23.796C107.231 22.752 107.891 22.008 108.851 22.008C109.799 22.008 110.459 22.74 110.459 23.796C110.459 24.852 109.799 25.584 108.851 25.584ZM120.102 20.544H118.254L116.73 24.984L115.038 20.544H113.13L115.806 26.868L115.626 27.228C115.446 27.612 115.158 27.804 114.774 27.804C114.474 27.804 114.222 27.696 113.934 27.456L113.154 28.788C113.682 29.22 114.222 29.412 114.906 29.412C116.022 29.412 116.814 28.86 117.27 27.72L120.102 20.544Z" fill="#040404"/>
<path d="M78.84 42V36.4H79.64V41.304H82.672V42H78.84ZM85.3113 42.048C84.858 42.048 84.458 41.9547 84.1113 41.768C83.77 41.5813 83.5033 41.3253 83.3113 41C83.1246 40.6747 83.0313 40.3013 83.0313 39.88C83.0313 39.4587 83.122 39.0853 83.3033 38.76C83.49 38.4347 83.7433 38.1813 84.0633 38C84.3886 37.8133 84.754 37.72 85.1593 37.72C85.57 37.72 85.9326 37.8107 86.2473 37.992C86.562 38.1733 86.8073 38.4293 86.9833 38.76C87.1646 39.0853 87.2553 39.4667 87.2553 39.904C87.2553 39.936 87.2526 39.9733 87.2473 40.016C87.2473 40.0587 87.2446 40.0987 87.2393 40.136H83.6313V39.584H86.8393L86.5273 39.776C86.5326 39.504 86.4766 39.2613 86.3593 39.048C86.242 38.8347 86.0793 38.6693 85.8713 38.552C85.6686 38.4293 85.4313 38.368 85.1593 38.368C84.8926 38.368 84.6553 38.4293 84.4473 38.552C84.2393 38.6693 84.0766 38.8373 83.9593 39.056C83.842 39.2693 83.7833 39.5147 83.7833 39.792V39.92C83.7833 40.2027 83.8473 40.456 83.9753 40.68C84.1086 40.8987 84.2926 41.0693 84.5273 41.192C84.762 41.3147 85.0313 41.376 85.3353 41.376C85.586 41.376 85.8126 41.3333 86.0153 41.248C86.2233 41.1627 86.4046 41.0347 86.5593 40.864L86.9833 41.36C86.7913 41.584 86.5513 41.7547 86.2633 41.872C85.9806 41.9893 85.6633 42.048 85.3113 42.048ZM90.8366 42V41.104L90.7966 40.936V39.408C90.7966 39.0827 90.7006 38.832 90.5086 38.656C90.3219 38.4747 90.0392 38.384 89.6606 38.384C89.4099 38.384 89.1646 38.4267 88.9246 38.512C88.6846 38.592 88.4819 38.7013 88.3166 38.84L87.9966 38.264C88.2152 38.088 88.4766 37.9547 88.7806 37.864C89.0899 37.768 89.4126 37.72 89.7486 37.72C90.3299 37.72 90.7779 37.8613 91.0926 38.144C91.4072 38.4267 91.5646 38.8587 91.5646 39.44V42H90.8366ZM89.4446 42.048C89.1299 42.048 88.8526 41.9947 88.6126 41.888C88.3779 41.7813 88.1966 41.6347 88.0686 41.448C87.9406 41.256 87.8766 41.04 87.8766 40.8C87.8766 40.5707 87.9299 40.3627 88.0366 40.176C88.1486 39.9893 88.3272 39.84 88.5726 39.728C88.8232 39.616 89.1592 39.56 89.5806 39.56H90.9246V40.112H89.6126C89.2286 40.112 88.9699 40.176 88.8366 40.304C88.7032 40.432 88.6366 40.5867 88.6366 40.768C88.6366 40.976 88.7192 41.144 88.8846 41.272C89.0499 41.3947 89.2792 41.456 89.5726 41.456C89.8606 41.456 90.1112 41.392 90.3246 41.264C90.5432 41.136 90.7006 40.9493 90.7966 40.704L90.9486 41.232C90.8472 41.4827 90.6686 41.6827 90.4126 41.832C90.1566 41.976 89.8339 42.048 89.4446 42.048ZM92.9858 42V37.76H93.7218V38.912L93.6498 38.624C93.7671 38.3307 93.9645 38.1067 94.2418 37.952C94.5191 37.7973 94.8605 37.72 95.2658 37.72V38.464C95.2338 38.4587 95.2018 38.456 95.1698 38.456C95.1431 38.456 95.1165 38.456 95.0898 38.456C94.6791 38.456 94.3538 38.5787 94.1138 38.824C93.8738 39.0693 93.7538 39.424 93.7538 39.888V42H92.9858ZM98.4764 37.72C98.823 37.72 99.127 37.7867 99.3884 37.92C99.655 38.0533 99.863 38.256 100.012 38.528C100.162 38.8 100.236 39.144 100.236 39.56V42H99.4684V39.648C99.4684 39.2373 99.367 38.928 99.1644 38.72C98.967 38.512 98.687 38.408 98.3244 38.408C98.0524 38.408 97.815 38.4613 97.6124 38.568C97.4097 38.6747 97.2524 38.832 97.1404 39.04C97.0337 39.248 96.9804 39.5067 96.9804 39.816V42H96.2124V37.76H96.9484V38.904L96.8284 38.6C96.967 38.3227 97.1804 38.1067 97.4684 37.952C97.7564 37.7973 98.0924 37.72 98.4764 37.72ZM104.638 39.048H107.526V39.736H104.638V39.048ZM104.718 42H103.918V36.4H107.87V37.096H104.718V42ZM108.806 42V37.76H109.542V38.912L109.47 38.624C109.587 38.3307 109.785 38.1067 110.062 37.952C110.339 37.7973 110.681 37.72 111.086 37.72V38.464C111.054 38.4587 111.022 38.456 110.99 38.456C110.963 38.456 110.937 38.456 110.91 38.456C110.499 38.456 110.174 38.5787 109.934 38.824C109.694 39.0693 109.574 39.424 109.574 39.888V42H108.806ZM113.81 42.048C113.383 42.048 113.004 41.9547 112.674 41.768C112.343 41.5813 112.082 41.3253 111.89 41C111.698 40.6693 111.602 40.296 111.602 39.88C111.602 39.4587 111.698 39.0853 111.89 38.76C112.082 38.4347 112.343 38.1813 112.674 38C113.004 37.8133 113.383 37.72 113.81 37.72C114.231 37.72 114.607 37.8133 114.938 38C115.274 38.1813 115.535 38.4347 115.722 38.76C115.914 39.08 116.01 39.4533 116.01 39.88C116.01 40.3013 115.914 40.6747 115.722 41C115.535 41.3253 115.274 41.5813 114.938 41.768C114.607 41.9547 114.231 42.048 113.81 42.048ZM113.81 41.376C114.082 41.376 114.324 41.3147 114.538 41.192C114.756 41.0693 114.927 40.896 115.05 40.672C115.172 40.4427 115.234 40.1787 115.234 39.88C115.234 39.576 115.172 39.3147 115.05 39.096C114.927 38.872 114.756 38.6987 114.538 38.576C114.324 38.4533 114.082 38.392 113.81 38.392C113.538 38.392 113.295 38.4533 113.082 38.576C112.868 38.6987 112.698 38.872 112.57 39.096C112.442 39.3147 112.378 39.576 112.378 39.88C112.378 40.1787 112.442 40.4427 112.57 40.672C112.698 40.896 112.868 41.0693 113.082 41.192C113.295 41.3147 113.538 41.376 113.81 41.376ZM122.376 37.72C122.717 37.72 123.018 37.7867 123.28 37.92C123.541 38.0533 123.744 38.256 123.888 38.528C124.037 38.8 124.112 39.144 124.112 39.56V42H123.344V39.648C123.344 39.2373 123.248 38.928 123.056 38.72C122.864 38.512 122.594 38.408 122.248 38.408C121.992 38.408 121.768 38.4613 121.576 38.568C121.384 38.6747 121.234 38.832 121.128 39.04C121.026 39.248 120.976 39.5067 120.976 39.816V42H120.208V39.648C120.208 39.2373 120.112 38.928 119.92 38.72C119.733 38.512 119.464 38.408 119.112 38.408C118.861 38.408 118.64 38.4613 118.448 38.568C118.256 38.6747 118.106 38.832 118 39.04C117.893 39.248 117.84 39.5067 117.84 39.816V42H117.072V37.76H117.808V38.888L117.688 38.6C117.821 38.3227 118.026 38.1067 118.304 37.952C118.581 37.7973 118.904 37.72 119.272 37.72C119.677 37.72 120.026 37.8213 120.32 38.024C120.613 38.2213 120.805 38.5227 120.896 38.928L120.584 38.8C120.712 38.4747 120.936 38.2133 121.256 38.016C121.576 37.8187 121.949 37.72 122.376 37.72ZM131.801 36.4H132.601V42H131.801V36.4ZM128.585 42H127.785V36.4H128.585V42ZM131.873 39.504H128.505V38.808H131.873V39.504ZM135.982 42.048C135.555 42.048 135.176 41.9547 134.846 41.768C134.515 41.5813 134.254 41.3253 134.062 41C133.87 40.6693 133.774 40.296 133.774 39.88C133.774 39.4587 133.87 39.0853 134.062 38.76C134.254 38.4347 134.515 38.1813 134.846 38C135.176 37.8133 135.555 37.72 135.982 37.72C136.403 37.72 136.779 37.8133 137.11 38C137.446 38.1813 137.707 38.4347 137.894 38.76C138.086 39.08 138.182 39.4533 138.182 39.88C138.182 40.3013 138.086 40.6747 137.894 41C137.707 41.3253 137.446 41.5813 137.11 41.768C136.779 41.9547 136.403 42.048 135.982 42.048ZM135.982 41.376C136.254 41.376 136.496 41.3147 136.71 41.192C136.928 41.0693 137.099 40.896 137.222 40.672C137.344 40.4427 137.406 40.1787 137.406 39.88C137.406 39.576 137.344 39.3147 137.222 39.096C137.099 38.872 136.928 38.6987 136.71 38.576C136.496 38.4533 136.254 38.392 135.982 38.392C135.71 38.392 135.467 38.4533 135.254 38.576C135.04 38.6987 134.87 38.872 134.742 39.096C134.614 39.3147 134.55 39.576 134.55 39.88C134.55 40.1787 134.614 40.4427 134.742 40.672C134.87 40.896 135.04 41.0693 135.254 41.192C135.467 41.3147 135.71 41.376 135.982 41.376ZM144.548 37.72C144.889 37.72 145.19 37.7867 145.452 37.92C145.713 38.0533 145.916 38.256 146.06 38.528C146.209 38.8 146.284 39.144 146.284 39.56V42H145.516V39.648C145.516 39.2373 145.42 38.928 145.228 38.72C145.036 38.512 144.766 38.408 144.42 38.408C144.164 38.408 143.94 38.4613 143.748 38.568C143.556 38.6747 143.406 38.832 143.3 39.04C143.198 39.248 143.148 39.5067 143.148 39.816V42H142.38V39.648C142.38 39.2373 142.284 38.928 142.092 38.72C141.905 38.512 141.636 38.408 141.284 38.408C141.033 38.408 140.812 38.4613 140.62 38.568C140.428 38.6747 140.278 38.832 140.172 39.04C140.065 39.248 140.012 39.5067 140.012 39.816V42H139.244V37.76H139.98V38.888L139.86 38.6C139.993 38.3227 140.198 38.1067 140.476 37.952C140.753 37.7973 141.076 37.72 141.444 37.72C141.849 37.72 142.198 37.8213 142.492 38.024C142.785 38.2213 142.977 38.5227 143.068 38.928L142.756 38.8C142.884 38.4747 143.108 38.2133 143.428 38.016C143.748 37.8187 144.121 37.72 144.548 37.72ZM149.585 42.048C149.131 42.048 148.731 41.9547 148.385 41.768C148.043 41.5813 147.777 41.3253 147.585 41C147.398 40.6747 147.305 40.3013 147.305 39.88C147.305 39.4587 147.395 39.0853 147.577 38.76C147.763 38.4347 148.017 38.1813 148.337 38C148.662 37.8133 149.027 37.72 149.433 37.72C149.843 37.72 150.206 37.8107 150.521 37.992C150.835 38.1733 151.081 38.4293 151.257 38.76C151.438 39.0853 151.529 39.4667 151.529 39.904C151.529 39.936 151.526 39.9733 151.521 40.016C151.521 40.0587 151.518 40.0987 151.513 40.136H147.905V39.584H151.113L150.801 39.776C150.806 39.504 150.75 39.2613 150.633 39.048C150.515 38.8347 150.353 38.6693 150.145 38.552C149.942 38.4293 149.705 38.368 149.433 38.368C149.166 38.368 148.929 38.4293 148.721 38.552C148.513 38.6693 148.35 38.8373 148.233 39.056C148.115 39.2693 148.057 39.5147 148.057 39.792V39.92C148.057 40.2027 148.121 40.456 148.249 40.68C148.382 40.8987 148.566 41.0693 148.801 41.192C149.035 41.3147 149.305 41.376 149.609 41.376C149.859 41.376 150.086 41.3333 150.289 41.248C150.497 41.1627 150.678 41.0347 150.833 40.864L151.257 41.36C151.065 41.584 150.825 41.7547 150.537 41.872C150.254 41.9893 149.937 42.048 149.585 42.048Z" fill="#9295A3"/>
<g filter="url(#filter0_d_319_4095)">
<g filter="url(#filter1_d_319_4095)">
<path d="M64.7826 42H51.2174C48.3478 42 46 39.6522 46 36.7826V23.2174C46 20.3478 48.3478 18 51.2174 18H64.7826C67.6522 18 70 20.3478 70 23.2174V36.7826C70 39.6522 67.6522 42 64.7826 42Z" fill="#4DC591"/>
</g>
<path d="M58.5475 31.2393H61.2866C61.9649 31.2393 62.5127 30.6914 62.5127 30.0132C62.5127 29.3349 61.9649 28.7871 61.2866 28.7871H58.5475V31.2393Z" fill="white"/>
<path d="M62.1475 25.5261C61.9127 25.0304 61.5736 24.613 61.1562 24.2739C60.504 23.7261 59.6692 23.387 58.7562 23.387H58.5475V25.8391H60.9214H61.9127C62.0953 25.8391 62.1996 25.6565 62.1475 25.5261Z" fill="white"/>
<path d="M58.5475 36.584H58.7562C59.3301 36.584 59.8779 36.4536 60.3475 36.2188C59.7475 36.0884 59.1475 35.9058 58.5475 35.7231V36.584Z" fill="#F2F2F2"/>
<path d="M62.1475 34.4737C62.2257 34.3171 62.0953 34.1345 61.9388 34.1345H58.5475V35.7258C59.1475 35.9345 59.7736 36.091 60.3475 36.2215C61.1301 35.8823 61.7562 35.2563 62.1475 34.4737Z" fill="white"/>
<path d="M53.4866 32.1782V32.8565C53.4866 34.4739 54.53 35.8565 55.9648 36.3782C56.3561 36.5347 56.7996 36.613 57.2431 36.613H57.4518V35.3347C55.73 34.6043 54.1648 33.5347 53.4866 32.1782Z" fill="#F2F2F2"/>
<path d="M57.1129 23.3875C56.6172 23.4135 56.1738 23.5179 55.7303 23.7005C54.5303 24.2222 53.6433 25.3961 53.5129 26.7787C53.5129 26.9092 53.4868 27.0396 53.4868 27.144V27.1961V28.5526C54.2694 26.3092 56.0694 24.3788 57.1129 23.3875Z" fill="#F2F2F2"/>
<path d="M57.452 23.3875H57.2433C57.1911 23.3875 57.1651 23.3875 57.1129 23.3875C56.0694 24.3788 54.2694 26.3092 53.4868 28.5526V29.6744V32.1787C54.1651 33.5613 55.7303 34.6048 57.452 35.3352V30.2222V23.3875Z" fill="white"/>
</g>
<defs>
<filter id="filter0_d_319_4095" x="6" y="-12" width="104" height="104" filterUnits="userSpaceOnUse" color-interpolation-filters="sRGB">
<feFlood flood-opacity="0" result="BackgroundImageFix"/>
<feColorMatrix in="SourceAlpha" type="matrix" values="0 0 0 0 0 0 0 0 0 0 0 0 0 0 0 0 0 0 127 0" result="hardAlpha"/>
<feOffset dy="10"/>
<feGaussianBlur stdDeviation="20"/>
<feColorMatrix type="matrix" values="0 0 0 0 0.52549 0 0 0 0 0.619608 0 0 0 0 0.941176 0 0 0 0.3 0"/>
<feBlend mode="normal" in2="BackgroundImageFix" result="effect1_dropShadow_319_4095"/>
<feBlend mode="normal" in="SourceGraphic" in2="effect1_dropShadow_319_4095" result="shape"/>
</filter>
<filter id="filter1_d_319_4095" x="-8" y="-12" width="132" height="132" filterUnits="userSpaceOnUse" color-interpolation-filters="sRGB">
<feFlood flood-opacity="0" result="BackgroundImageFix"/>
<feColorMatrix in="SourceAlpha" type="matrix" values="0 0 0 0 0 0 0 0 0 0 0 0 0 0 0 0 0 0 127 0" result="hardAlpha"/>
<feOffset dy="24"/>
<feGaussianBlur stdDeviation="27"/>
<feColorMatrix type="matrix" values="0 0 0 0 0.301961 0 0 0 0 0.772549 0 0 0 0 0.568627 0 0 0 0.2 0"/>
<feBlend mode="normal" in2="BackgroundImageFix" result="effect1_dropShadow_319_4095"/>
<feBlend mode="normal" in="SourceGraphic" in2="effect1_dropShadow_319_4095" result="shape"/>
</filter>
</defs>
</svg>
