<svg width="34" height="32" viewBox="0 0 34 32" fill="none" xmlns="http://www.w3.org/2000/svg">
<path fill-rule="evenodd" clip-rule="evenodd" d="M2.91744 16.4893V16.3068C2.94421 15.7669 3.11725 15.2437 3.41871 14.7913C3.9205 14.2479 4.264 13.5819 4.41318 12.8633C4.41318 12.3079 4.41318 11.7446 4.46169 11.1892C4.71232 8.51534 7.35615 6.66666 9.96763 6.66666H10.0323C12.6438 6.66666 15.2876 8.51534 15.5463 11.1892C15.5948 11.7446 15.5463 12.3079 15.5868 12.8633C15.7379 13.5836 16.0811 14.2516 16.5812 14.7993C16.8849 15.2477 17.0583 15.7689 17.0825 16.3068V16.4813C17.1005 17.2067 16.8507 17.914 16.3791 18.4728C15.7559 19.1262 14.9102 19.5327 14.0021 19.6154C11.3392 19.901 8.65261 19.901 5.98977 19.6154C5.0827 19.5292 4.23821 19.1232 3.61275 18.4728C3.14841 17.9136 2.90195 17.2105 2.91744 16.4893Z" stroke="#040404" stroke-width="1.5" stroke-linecap="round" stroke-linejoin="round"/>
<path d="M7.96265 22.3765C8.37871 22.8987 8.9897 23.2367 9.66039 23.3156C10.3311 23.3945 11.0062 23.2079 11.5363 22.797C11.6993 22.6755 11.846 22.5342 11.9728 22.3765" stroke="#040404" stroke-width="1.5" stroke-linecap="round" stroke-linejoin="round"/>
<g filter="url(#filter0_d_319_2292)">
<circle cx="18" cy="11" r="4" fill="#FF7648"/>
<circle cx="18" cy="11" r="3.5" stroke="white"/>
</g>
<defs>
<filter id="filter0_d_319_2292" x="2" y="0" width="32" height="32" filterUnits="userSpaceOnUse" color-interpolation-filters="sRGB">
<feFlood flood-opacity="0" result="BackgroundImageFix"/>
<feColorMatrix in="SourceAlpha" type="matrix" values="0 0 0 0 0 0 0 0 0 0 0 0 0 0 0 0 0 0 127 0" result="hardAlpha"/>
<feOffset dy="5"/>
<feGaussianBlur stdDeviation="6"/>
<feColorMatrix type="matrix" values="0 0 0 0 0.858553 0 0 0 0 0.9375 0 0 0 0 0.84375 0 0 0 1 0"/>
<feBlend mode="normal" in2="BackgroundImageFix" result="effect1_dropShadow_319_2292"/>
<feBlend mode="normal" in="SourceGraphic" in2="effect1_dropShadow_319_2292" result="shape"/>
</filter>
</defs>
</svg>
